<svg width="12.782608" height="21.000000" viewBox="0 0 12.7826 21" fill="none" xmlns="http://www.w3.org/2000/svg" xmlns:xlink="http://www.w3.org/1999/xlink">
	<desc>
			Created with Pixso.
	</desc>
	<defs/>
	<path id="Facebook" d="M12.78 0.59C12.78 0.43 12.72 0.28 12.61 0.17C12.5 0.06 12.35 0 12.2 0L9.29 0C7.83 -0.07 6.4 0.44 5.31 1.42C4.22 2.41 3.56 3.78 3.48 5.25L3.48 8.4L0.58 8.4C0.42 8.4 0.27 8.46 0.17 8.57C0.06 8.68 0 8.83 0 8.98L0 12.01C0 12.17 0.06 12.32 0.17 12.43C0.27 12.54 0.42 12.6 0.58 12.6L3.48 12.6L3.48 20.41C3.48 20.57 3.54 20.71 3.65 20.82C3.76 20.93 3.91 21 4.06 21L7.55 21C7.7 21 7.85 20.93 7.96 20.82C8.07 20.71 8.13 20.57 8.13 20.41L8.13 12.6L11.17 12.6C11.3 12.6 11.43 12.56 11.53 12.48C11.64 12.4 11.71 12.29 11.74 12.17L12.58 9.13C12.6 9.05 12.61 8.96 12.59 8.87C12.57 8.78 12.54 8.7 12.48 8.63C12.43 8.56 12.36 8.5 12.28 8.46C12.2 8.42 12.11 8.4 12.02 8.4L8.13 8.4L8.13 5.25C8.16 4.96 8.29 4.69 8.51 4.5C8.72 4.31 9 4.2 9.29 4.2L12.2 4.2C12.35 4.2 12.5 4.14 12.61 4.03C12.72 3.92 12.78 3.77 12.78 3.62L12.78 0.59Z" fill="#FFFFFF" fill-opacity="1.000000" fill-rule="nonzero"/>
</svg>
