<svg width="23.000000" height="23.000000" viewBox="0 0 23 23" fill="none" xmlns="http://www.w3.org/2000/svg" xmlns:xlink="http://www.w3.org/1999/xlink">
	<desc>
			Created with Pixso.
	</desc>
	<defs/>
	<path id="Github" d="M11.5 0C8.45 0 5.52 1.21 3.36 3.36C1.21 5.52 0 8.45 0 11.5C0 14.55 1.21 17.47 3.36 19.63C5.52 21.78 8.45 23 11.5 23C14.55 23 17.47 21.78 19.63 19.63C21.78 17.47 23 14.55 23 11.5C23 8.45 21.78 5.52 19.63 3.36C17.47 1.21 14.55 0 11.5 0ZM14.53 20.87L14.44 20.87C14.37 20.87 14.3 20.86 14.24 20.84C14.18 20.82 14.12 20.78 14.07 20.74C14.03 20.69 13.99 20.63 13.97 20.57C13.94 20.51 13.93 20.45 13.94 20.38L13.94 19.03C13.94 18.58 13.95 18.13 13.95 17.68C13.94 17.34 13.9 17.01 13.8 16.69C13.71 16.37 13.53 16.08 13.28 15.85C13.95 15.79 14.61 15.64 15.24 15.4C15.77 15.2 16.25 14.88 16.64 14.48C17.03 14.07 17.32 13.57 17.49 13.03C17.69 12.37 17.79 11.68 17.78 10.99C17.78 10.51 17.69 10.03 17.53 9.58C17.35 9.12 17.1 8.7 16.77 8.35C16.84 8.17 16.89 7.98 16.92 7.79C16.99 7.35 16.98 6.9 16.88 6.47C16.83 6.22 16.76 5.98 16.67 5.74C16.64 5.72 16.6 5.72 16.56 5.72L16.46 5.72C16.24 5.72 16.02 5.76 15.81 5.83C15.58 5.89 15.36 5.98 15.14 6.08C14.92 6.17 14.71 6.28 14.5 6.4C14.32 6.51 14.14 6.63 13.96 6.75C12.34 6.3 10.64 6.3 9.03 6.75C8.85 6.63 8.66 6.51 8.48 6.4C8.27 6.28 8.06 6.17 7.83 6.08C7.62 5.97 7.39 5.89 7.16 5.83C6.95 5.76 6.74 5.72 6.52 5.72L6.42 5.72C6.38 5.72 6.35 5.73 6.32 5.74C6.23 5.98 6.15 6.22 6.09 6.47C6 6.9 5.99 7.35 6.06 7.79C6.1 7.98 6.15 8.17 6.22 8.35C5.89 8.7 5.63 9.12 5.46 9.58C5.29 10.03 5.21 10.51 5.21 10.99C5.19 11.68 5.29 12.36 5.49 13.02C5.66 13.56 5.95 14.06 6.33 14.48C6.73 14.88 7.21 15.19 7.74 15.4C8.36 15.64 9.02 15.79 9.69 15.86C9.5 16.03 9.35 16.23 9.25 16.46C9.16 16.69 9.09 16.93 9.06 17.18C8.71 17.34 8.33 17.43 7.94 17.44C7.57 17.45 7.22 17.35 6.92 17.15C6.63 16.93 6.38 16.66 6.19 16.36C6.11 16.23 6.02 16.11 5.92 15.99C5.81 15.87 5.69 15.76 5.56 15.66C5.43 15.57 5.29 15.49 5.14 15.43C5 15.37 4.84 15.34 4.68 15.34C4.65 15.34 4.61 15.34 4.57 15.35C4.52 15.35 4.46 15.35 4.41 15.37C4.37 15.38 4.33 15.4 4.29 15.42C4.27 15.43 4.26 15.45 4.25 15.46C4.24 15.48 4.23 15.5 4.23 15.52C4.24 15.56 4.25 15.61 4.27 15.65C4.3 15.69 4.33 15.72 4.37 15.75C4.45 15.82 4.53 15.88 4.59 15.91L4.62 15.93C4.74 16.03 4.87 16.14 4.98 16.25C5.09 16.35 5.19 16.45 5.27 16.57C5.36 16.68 5.43 16.81 5.49 16.93C5.56 17.06 5.64 17.21 5.71 17.38C5.89 17.83 6.21 18.22 6.63 18.48C7.06 18.71 7.55 18.82 8.04 18.81C8.21 18.81 8.38 18.8 8.54 18.78C8.71 18.76 8.87 18.73 9.04 18.7L9.04 20.37C9.04 20.43 9.03 20.5 9 20.56C8.98 20.63 8.94 20.68 8.89 20.73C8.84 20.78 8.79 20.81 8.72 20.84C8.66 20.86 8.59 20.87 8.52 20.87L8.47 20.87C6.23 20.14 4.33 18.65 3.1 16.65C1.87 14.65 1.39 12.27 1.76 9.95C2.12 7.63 3.31 5.52 5.09 3.99C6.88 2.47 9.15 1.63 11.5 1.63C13.84 1.63 16.11 2.47 17.9 3.99C19.69 5.52 20.87 7.63 21.23 9.95C21.6 12.27 21.12 14.65 19.89 16.65C18.66 18.65 16.76 20.14 14.53 20.87L14.53 20.87Z" fill="#FFFFFF" fill-opacity="1.000000" fill-rule="nonzero"/>
</svg>
