<svg width="23.000000" height="23.000000" viewBox="0 0 23 23" fill="none" xmlns="http://www.w3.org/2000/svg" xmlns:xlink="http://www.w3.org/1999/xlink">
	<desc>
			Created with Pixso.
	</desc>
	<defs/>
	<path id="Instagram" d="M6.75 0.06C7.98 0.01 8.37 0 11.5 0C14.62 0 15.01 0.01 16.24 0.06C17.46 0.12 18.3 0.31 19.03 0.6C19.8 0.89 20.49 1.34 21.06 1.93C21.65 2.5 22.1 3.19 22.39 3.96C22.68 4.69 22.87 5.53 22.93 6.75C22.98 7.98 23 8.37 23 11.5C23 14.62 22.98 15.01 22.93 16.24C22.87 17.46 22.68 18.3 22.39 19.03C22.1 19.78 21.7 20.43 21.06 21.06C20.49 21.65 19.8 22.1 19.03 22.39C18.3 22.68 17.46 22.87 16.24 22.93C15.01 22.98 14.62 23 11.5 23C8.37 23 7.98 22.98 6.75 22.93C5.53 22.87 4.69 22.68 3.96 22.39C3.21 22.1 2.56 21.7 1.93 21.06C1.34 20.49 0.89 19.8 0.6 19.03C0.31 18.3 0.12 17.46 0.06 16.24C0.01 15.01 0 14.62 0 11.5C0 8.37 0.01 7.98 0.06 6.75C0.12 5.53 0.31 4.69 0.6 3.96C0.89 3.19 1.34 2.5 1.93 1.93C2.5 1.34 3.19 0.89 3.96 0.6C4.69 0.31 5.53 0.12 6.75 0.06ZM16.14 2.13C14.93 2.08 14.57 2.07 11.5 2.07C8.42 2.07 8.06 2.08 6.85 2.13C5.73 2.19 5.12 2.37 4.71 2.53C4.18 2.74 3.79 2.99 3.39 3.39C2.99 3.79 2.74 4.18 2.53 4.71C2.37 5.12 2.19 5.73 2.13 6.85C2.08 8.06 2.07 8.42 2.07 11.5C2.07 14.57 2.08 14.93 2.13 16.14C2.19 17.26 2.37 17.87 2.53 18.28C2.71 18.78 3.01 19.23 3.39 19.6C3.76 19.98 4.21 20.28 4.71 20.46C5.12 20.62 5.73 20.8 6.85 20.86C8.06 20.91 8.42 20.92 11.5 20.92C14.57 20.92 14.93 20.91 16.14 20.86C17.26 20.8 17.87 20.62 18.28 20.46C18.81 20.25 19.2 20 19.6 19.6C19.98 19.23 20.28 18.78 20.46 18.28C20.62 17.87 20.8 17.26 20.86 16.14C20.91 14.93 20.92 14.57 20.92 11.5C20.92 8.42 20.91 8.06 20.86 6.85C20.8 5.73 20.62 5.12 20.46 4.71C20.25 4.18 20 3.79 19.6 3.39C19.2 2.99 18.81 2.74 18.28 2.53C17.87 2.37 17.26 2.19 16.14 2.13ZM10.03 15.04C10.49 15.23 10.99 15.33 11.5 15.33C12.51 15.33 13.49 14.93 14.21 14.21C14.93 13.49 15.33 12.51 15.33 11.5C15.33 10.48 14.93 9.5 14.21 8.78C13.49 8.06 12.51 7.66 11.5 7.66C10.99 7.66 10.49 7.76 10.03 7.95C9.56 8.14 9.14 8.43 8.78 8.78C8.43 9.14 8.14 9.56 7.95 10.03C7.76 10.49 7.66 10.99 7.66 11.5C7.66 12 7.76 12.5 7.95 12.96C8.14 13.43 8.43 13.85 8.78 14.21C9.14 14.56 9.56 14.85 10.03 15.04ZM7.32 7.32C8.42 6.21 9.93 5.58 11.5 5.58C13.06 5.58 14.57 6.21 15.67 7.32C16.78 8.42 17.41 9.93 17.41 11.5C17.41 13.06 16.78 14.57 15.67 15.67C14.57 16.78 13.06 17.41 11.5 17.41C9.93 17.41 8.42 16.78 7.32 15.67C6.21 14.57 5.58 13.06 5.58 11.5C5.58 9.93 6.21 8.42 7.32 7.32ZM18.72 6.46C18.98 6.2 19.13 5.85 19.13 5.48C19.13 5.11 18.98 4.75 18.72 4.49C18.45 4.23 18.1 4.08 17.73 4.08C17.36 4.08 17 4.23 16.74 4.49C16.48 4.75 16.33 5.11 16.33 5.48C16.33 5.85 16.48 6.2 16.74 6.46C17 6.73 17.36 6.87 17.73 6.87C18.1 6.87 18.45 6.73 18.72 6.46Z" fill="#FFFFFF" fill-opacity="1.000000" fill-rule="evenodd"/>
</svg>
